<svg xmlns="http://www.w3.org/2000/svg" viewBox="0 0 306.14 99.6"><defs><style>.cls-1{fill-rule:evenodd;}</style></defs><g id="Calque_2" data-name="Calque 2"><g id="Calque_1-2" data-name="Calque 1"><path d="M71.78.71a4.38,4.38,0,0,1,.58,2.37,9,9,0,0,1-1.12,4.07,15.31,15.31,0,0,1-3.09,4.1,18.9,18.9,0,0,1-4.83,3.32A18.48,18.48,0,0,1,57,16.33c-1.44.14-2.9.22-4.39.22-1.68,0-3.39-.08-5.15-.22S44,16,42.26,15.75q-.72,2.82-1.29,6.3c-.39,2.33-.79,4.82-1.23,7.46a37.73,37.73,0,0,0,4.54-2.92A17.89,17.89,0,0,1,48,24.32a1.34,1.34,0,0,1,.9-.11,1.41,1.41,0,0,1,.76.44,1.22,1.22,0,0,1,.32.75,1.28,1.28,0,0,1-.39.94,10.4,10.4,0,0,0-1.91,3.24,25.66,25.66,0,0,0-1.19,4,26.73,26.73,0,0,0-.54,4,12.69,12.69,0,0,0,.11,3,.67.67,0,0,1-.25.65.65.65,0,0,1-.69.15A6.83,6.83,0,0,1,44,40.74a5,5,0,0,1-1.15-1.19,7.42,7.42,0,0,1-.94-1.87,9.69,9.69,0,0,1-.47-2.7,7.4,7.4,0,0,0-.79.36l-.9.32c-.36.12-.73.25-1.12.4q-1.21,6.19-2.84,12.31a57.06,57.06,0,0,1-4.14,11.12,28.82,28.82,0,0,1-6.16,8.36,15.09,15.09,0,0,1-8.82,3.92c-.43,0-.84.08-1.22.11s-.77,0-1.15,0a15.21,15.21,0,0,1-6.55-1.29,12.44,12.44,0,0,1-4.47-3.46,14,14,0,0,1-2.52-5A22,22,0,0,1,0,56.22a27.16,27.16,0,0,1,3.67-13.5,17.31,17.31,0,0,1,4.14-4.83A10,10,0,0,1,13.1,35.7a8.76,8.76,0,0,1,3.71.29,5.57,5.57,0,0,1,2.41,1.54A6.14,6.14,0,0,1,20.56,40,11.78,11.78,0,0,1,21,43.11a19.88,19.88,0,0,1-.68,5,26.39,26.39,0,0,1-1.69,4.68,15.27,15.27,0,0,1-2.16,3.39c-.77.86-1.44,1.25-2,1.15-.29-.19-.38-.38-.29-.58.15-.38.34-1,.58-1.76s.48-1.69.72-2.7.45-2.06.65-3.17a18.18,18.18,0,0,0,.28-3.09,6.45,6.45,0,0,0-.61-3,2.11,2.11,0,0,0-2.27-1,3.1,3.1,0,0,0-1.76,1.3,12.09,12.09,0,0,0-1.62,3,24.21,24.21,0,0,0-1.19,4,20.61,20.61,0,0,0-.47,4.28,14,14,0,0,0,.36,3.24,7.07,7.07,0,0,0,1.16,2.59A5.11,5.11,0,0,0,12,62.05a6.14,6.14,0,0,0,3.17.36,6.68,6.68,0,0,0,4.47-2.56,26.25,26.25,0,0,0,3.74-6,69.4,69.4,0,0,0,3.2-8.39q1.48-4.68,2.92-9.58A5.26,5.26,0,0,1,27.72,34,9.43,9.43,0,0,1,26.64,31a.46.46,0,0,1,.22-.54.66.66,0,0,1,.64,0c.34.14.77.3,1.3.47a10.49,10.49,0,0,0,2,.39q1.29-4.68,2.59-8.92a64.67,64.67,0,0,1,2.73-7.49Q32.9,14.38,30,14a47,47,0,0,0-5.69-.36c-.48,0-.94,0-1.4,0s-.9.06-1.33.11a17.43,17.43,0,0,0-4.21,1,14.76,14.76,0,0,0-3,1.55,8.79,8.79,0,0,0-2,1.8,17.67,17.67,0,0,0-1.15,1.66,1,1,0,0,1-.94.43.67.67,0,0,1-.64-.65,12.35,12.35,0,0,1,.79-6.66,8.82,8.82,0,0,1,3.71-4A16.88,16.88,0,0,1,20,7a53.38,53.38,0,0,1,7.56-.5q4.74,0,9.9.36t10.26.36q3.45,0,6.69-.29a36.46,36.46,0,0,0,6.09-1,23.39,23.39,0,0,0,5.25-2.09A13.77,13.77,0,0,0,69.91.35.92.92,0,0,1,70.85,0,1.37,1.37,0,0,1,71.78.71Z"/><path d="M87.19,36.49c.48.14.71.79.69,1.94a17.85,17.85,0,0,1-.72,4.18,34.56,34.56,0,0,1-2,5.29A28.6,28.6,0,0,1,82,53.16a17.66,17.66,0,0,1-4.17,4,8.75,8.75,0,0,1-5,1.59,5.58,5.58,0,0,1-3.45-1.15A7.15,7.15,0,0,1,67,54.27a17.74,17.74,0,0,1-3.63,3.17,7.54,7.54,0,0,1-4.22,1.3,10.31,10.31,0,0,1-4.32-.83A7.58,7.58,0,0,1,52,55.65a9.6,9.6,0,0,1-1.66-3.34,15.11,15.11,0,0,1-.54-4.13,25.09,25.09,0,0,1,1.37-7.87,28.12,28.12,0,0,1,3.82-7.58,22.68,22.68,0,0,1,5.72-5.68,12.39,12.39,0,0,1,7.09-2.22,5.08,5.08,0,0,1,4.07,1.7,11.21,11.21,0,0,1,2.2,4,4.18,4.18,0,0,1,1.87-.43,1.92,1.92,0,0,1,1.73.76,3.41,3.41,0,0,1,.5,1.91,8.56,8.56,0,0,1-.29,2.12,15,15,0,0,1-.75,2.2,15.84,15.84,0,0,1-1,2A7.24,7.24,0,0,1,75,40.52a14.9,14.9,0,0,0-.36,1.91,22.22,22.22,0,0,0-.21,3.13,9.62,9.62,0,0,0,.46,3.1A1.78,1.78,0,0,0,76.61,50c.43,0,1-.35,1.55-1.05A21.38,21.38,0,0,0,80,46.39c.65-1,1.3-2.15,2-3.35s1.33-2.3,2-3.31a21.19,21.19,0,0,1,1.8-2.45C86.34,36.66,86.81,36.39,87.19,36.49ZM61.63,50a4.9,4.9,0,0,0,2.52-.72,8.92,8.92,0,0,0,2.23-1.87A26.92,26.92,0,0,1,67,43.58a39.83,39.83,0,0,1,1.15-4.07,32,32,0,0,1,1.58-3.85,15.58,15.58,0,0,1,2-3.13,4.78,4.78,0,0,0-.65-2,1.65,1.65,0,0,0-1.51-.83,5.9,5.9,0,0,0-4,1.73,18.14,18.14,0,0,0-3.39,4.21A26,26,0,0,0,59.8,41a16.49,16.49,0,0,0-.9,5,5.65,5.65,0,0,0,.64,2.85A2.25,2.25,0,0,0,61.63,50Z"/><path d="M91.08,22.74a4.51,4.51,0,0,1,2.38.61,1.74,1.74,0,0,1,.86,1.84,22.9,22.9,0,0,1-.65,3.38c1-.48,2-1,3.06-1.66s2.1-1.15,3.06-1.58a.12.12,0,0,0,.11,0,.16.16,0,0,1,.11,0,5,5,0,0,1,1.8.57,6.87,6.87,0,0,1,1.87,1.23,3.71,3.71,0,0,1,.86,2.73,16.5,16.5,0,0,1-.61,4.14q-.62,2.34-1.33,4.79c-.48,1.63-.92,3.21-1.33,4.72a15.28,15.28,0,0,0-.61,3.92,3.44,3.44,0,0,0,.54,2,2.08,2.08,0,0,0,1.83.76,2.38,2.38,0,0,0,1.69-1.12,21.68,21.68,0,0,0,1.84-2.7c.62-1.05,1.24-2.18,1.84-3.38s1.2-2.28,1.8-3.24a10.86,10.86,0,0,1,1.72-2.2,1.25,1.25,0,0,1,1.62-.25c.44.29.58,1,.44,2.2a20.21,20.21,0,0,1-1.08,4.14,39.06,39.06,0,0,1-2.31,5,34.09,34.09,0,0,1-3.2,4.89,19,19,0,0,1-3.82,3.71,6.92,6.92,0,0,1-4.07,1.48c-2.88,0-4.87-.75-6-2.23A9,9,0,0,1,91.87,51a24.63,24.63,0,0,1,.9-6.33c.6-2.26,1.26-4.38,2-6.38s1.36-3.73,1.91-5.22a8.94,8.94,0,0,0,.76-2.88s-.26,0-.76.15a14.48,14.48,0,0,0-1.62.57l-1.62.69a6.33,6.33,0,0,0-.83.39Q91,35.26,89.75,38.11c-.84,1.9-1.59,3.52-2.23,4.86A24.74,24.74,0,0,1,85.82,46c-.48.7-.93.92-1.36.68a2.07,2.07,0,0,1-.94-1,3.78,3.78,0,0,1-.29-1.52,9.43,9.43,0,0,1,.47-2.73,27.89,27.89,0,0,1,1.19-3.13c.48-1.08,1-2.13,1.51-3.14l1.44-2.73c-1.34-.29-2-1.25-2-2.88a17.27,17.27,0,0,1,.8-4.32,3,3,0,0,1,1.69-1.87A6.16,6.16,0,0,1,91.08,22.74Z"/><path d="M194.9,69.11a.41.41,0,0,1,.36.21.35.35,0,0,1,0,.43l-1,1.55a9.08,9.08,0,0,1-1.55,1.84,9.86,9.86,0,0,1-2.19,1.51,5.68,5.68,0,0,1-2.85.58,7.58,7.58,0,0,1-4.78-1.66,11,11,0,0,1-3.06-4.25,23.14,23.14,0,0,1-1.62-6.26,58.49,58.49,0,0,1-.47-7.71c0-2.92.14-5.9.43-8.92a21.36,21.36,0,0,0-5.47,1.65A35.62,35.62,0,0,0,167.4,51a82.54,82.54,0,0,1-5.51,7.74,44.61,44.61,0,0,1-6.08,6.3,27.51,27.51,0,0,1-6.59,4.18,15.84,15.84,0,0,1-7.09,1.37,12.35,12.35,0,0,1-5.69-1.37,11.61,11.61,0,0,1-3.89-3.39A14.33,14.33,0,0,1,130.32,61a22.56,22.56,0,0,1-.72-5.76,34.42,34.42,0,0,1,5.89-18.83,24.31,24.31,0,0,1,6.68-6.62,14.27,14.27,0,0,1,8.54-2.41q3.89.13,5.53,2.48a9.44,9.44,0,0,1,1.66,5.58A18,18,0,0,1,157,41a24.4,24.4,0,0,1-2.42,5.3,15.71,15.71,0,0,1-3.43,4,6.37,6.37,0,0,1-4,1.54,5.26,5.26,0,0,1-2.88-.86.75.75,0,0,1-.36-.79.87.87,0,0,1,.57-.72,6.55,6.55,0,0,0,2.49-1.77,15.64,15.64,0,0,0,2.23-3,19.23,19.23,0,0,0,1.58-3.53,10.39,10.39,0,0,0,.61-3.27,3.46,3.46,0,0,0-.5-2,2.07,2.07,0,0,0-1.73-.83,4.83,4.83,0,0,0-3.56,1.65,17.66,17.66,0,0,0-3.17,4.4,28.6,28.6,0,0,0-2.27,5.79,22.61,22.61,0,0,0-.86,5.94,10,10,0,0,0,1.22,5.11,4.68,4.68,0,0,0,4.11,2.24c1.58,0,3.36-.76,5.32-2.42a47.55,47.55,0,0,0,6.23-6.51q3.28-4,6.7-9.15t6.69-10.33q3.28-5.22,6.27-10.08t5.36-8.31q-2.52,1-5.18,2.16t-5.19,2.12A44.21,44.21,0,0,1,166,19.17a13.85,13.85,0,0,1-4.1.54,9,9,0,0,1-2.88-.5,4.24,4.24,0,0,1-1.8-1.19,4.56,4.56,0,0,1-.94-1.69,6.9,6.9,0,0,1-.29-2,11.9,11.9,0,0,1,.54-3.49,31.73,31.73,0,0,1,1.12-3.13,1.11,1.11,0,0,1,.9-.65.94.94,0,0,1,1,.51A4.35,4.35,0,0,0,161,8.81a6.32,6.32,0,0,0,2.77.61A21.5,21.5,0,0,0,168.44,9q2.85-.54,5.8-1.15c2-.41,3.86-.79,5.69-1.15a19.65,19.65,0,0,1,4.46-.47,6.85,6.85,0,0,1,2.59.61,7.8,7.8,0,0,1,2,1.26,4.87,4.87,0,0,1,.9.86l.68.87c.19.33.36.65.51.93q-.66.43-1.44,3.39a70.76,70.76,0,0,0-1.48,7.45q-.69,4.5-1.12,10c-.28,3.7-.43,7.42-.43,11.16q0,4.91.4,9.51a46.62,46.62,0,0,0,1.37,8.21,19.09,19.09,0,0,0,2.59,5.94A5.91,5.91,0,0,0,194.9,69.11ZM172.66,41.89A13.51,13.51,0,0,1,176,40.23a15.75,15.75,0,0,1,2.95-.72q.65-4.53,1.3-9a64.25,64.25,0,0,1,1.72-8.24q-1.86,4.1-4.21,9.18T172.66,41.89Z"/><path d="M241.77,27.35a12.9,12.9,0,0,1-.43,3.88,42.94,42.94,0,0,1-1.83,6,60.54,60.54,0,0,1-3.17,6.94,42.51,42.51,0,0,1-4.39,6.7,26.59,26.59,0,0,1-5.62,5.26,14.85,14.85,0,0,1-6.73,2.59,7.29,7.29,0,0,1-5.8-2.27,11.33,11.33,0,0,1-2.55-5.8,36,36,0,0,1-5.47,5.55,9.12,9.12,0,0,1-5.61,2.3,6.75,6.75,0,0,1-3.39-.79,6.84,6.84,0,0,1-2.29-2.12,9.14,9.14,0,0,1-1.28-3.17,19.32,19.32,0,0,1-.39-4,31.83,31.83,0,0,1,.64-6.15,45.36,45.36,0,0,1,1.77-6.41A46.53,46.53,0,0,1,197.78,30a27.38,27.38,0,0,1,3-4.71,1.13,1.13,0,0,1,.5-.15,6.79,6.79,0,0,1,.94-.07h.93a1.73,1.73,0,0,1,.58.07c.43,0,1,0,1.55.08a4.14,4.14,0,0,1,1.65.46,3.87,3.87,0,0,1,1.3,1.12,3.3,3.3,0,0,1,.54,2,6.12,6.12,0,0,1-.37,1.9,17.73,17.73,0,0,1-1,2.42c-.44.86-.94,1.75-1.5,2.66s-1.15,1.8-1.78,2.66a43.34,43.34,0,0,0-1.67,5,16.44,16.44,0,0,0-.65,4.18,3.91,3.91,0,0,0,.39,1.91,1.42,1.42,0,0,0,1.33.68,3.19,3.19,0,0,0,1.73-.61,12,12,0,0,0,1.95-1.66,26.18,26.18,0,0,0,2-2.37c.67-.89,1.34-1.84,2-2.85a37.14,37.14,0,0,1,1.4-6.23A31.24,31.24,0,0,1,215,31a17.6,17.6,0,0,1,2.88-4A5.09,5.09,0,0,1,221,25.19a6.63,6.63,0,0,1,1.26,0,4.53,4.53,0,0,1,1.65.4,3.66,3.66,0,0,1,1.44,1.15,3.31,3.31,0,0,1,.62,2.09,5.46,5.46,0,0,1-.4,1.72A21.51,21.51,0,0,1,224.42,33q-.72,1.36-1.62,2.88T221,38.72A42,42,0,0,0,219.89,43a21,21,0,0,0-.43,4.06,7.08,7.08,0,0,0,.57,3.06A2,2,0,0,0,222,51.32a4.67,4.67,0,0,0,3.49-1.83,20.11,20.11,0,0,0,2.95-4.65,38.74,38.74,0,0,0,2.3-6.26q1-3.46,1.59-6.73a53.9,53.9,0,0,0,.79-5.91A14.94,14.94,0,0,0,233,22a.75.75,0,0,1,.25-.83.92.92,0,0,1,.9-.18,19,19,0,0,1,2.09.5,10.23,10.23,0,0,1,2.38,1,7.21,7.21,0,0,1,2,1.87A5.89,5.89,0,0,1,241.77,27.35Z"/><path d="M278,36.49c.48.14.71.79.69,1.94a17.85,17.85,0,0,1-.72,4.18,34.56,34.56,0,0,1-2,5.29,28.6,28.6,0,0,1-3.17,5.26,17.66,17.66,0,0,1-4.17,4,8.75,8.75,0,0,1-5,1.59,5.58,5.58,0,0,1-3.45-1.15,7.15,7.15,0,0,1-2.31-3.32,17.74,17.74,0,0,1-3.63,3.17,7.56,7.56,0,0,1-4.22,1.3,10.31,10.31,0,0,1-4.32-.83,7.58,7.58,0,0,1-2.91-2.26,9.6,9.6,0,0,1-1.66-3.34,15.11,15.11,0,0,1-.54-4.13,25.09,25.09,0,0,1,1.37-7.87,28.12,28.12,0,0,1,3.82-7.58,22.52,22.52,0,0,1,5.72-5.68,12.39,12.39,0,0,1,7.09-2.22,5.08,5.08,0,0,1,4.07,1.7,11.21,11.21,0,0,1,2.2,4,4.21,4.21,0,0,1,1.87-.43,1.92,1.92,0,0,1,1.73.76,3.41,3.41,0,0,1,.5,1.91,8.56,8.56,0,0,1-.29,2.12,15,15,0,0,1-.75,2.2,15.84,15.84,0,0,1-1.05,2,7.24,7.24,0,0,1-1.08,1.44,14.9,14.9,0,0,0-.36,1.91,22.22,22.22,0,0,0-.21,3.13,9.62,9.62,0,0,0,.46,3.1A1.78,1.78,0,0,0,267.41,50c.43,0,.94-.35,1.55-1.05a21.38,21.38,0,0,0,1.87-2.59c.65-1,1.31-2.15,2-3.35s1.33-2.3,2-3.31a21.19,21.19,0,0,1,1.8-2.45C277.14,36.66,277.61,36.39,278,36.49ZM252.43,50a4.88,4.88,0,0,0,2.52-.72,8.92,8.92,0,0,0,2.23-1.87,26.92,26.92,0,0,1,.62-3.78A39.83,39.83,0,0,1,259,39.51a32,32,0,0,1,1.58-3.85,15.58,15.58,0,0,1,2-3.13,4.92,4.92,0,0,0-.65-2,1.65,1.65,0,0,0-1.51-.83,5.9,5.9,0,0,0-4,1.73A17.88,17.88,0,0,0,253,35.66,25.44,25.44,0,0,0,250.6,41a16.49,16.49,0,0,0-.9,5,5.65,5.65,0,0,0,.64,2.85A2.25,2.25,0,0,0,252.43,50Z"/><path d="M306.14,29.65a11.27,11.27,0,0,1-.75,3.64,40.44,40.44,0,0,1-1.91,4.42q-1.16,2.31-2.41,4.54t-2.27,3.82q-.58,3.45-1.3,7.45t-1.76,7.95a69.69,69.69,0,0,1-2.48,7.6,28.51,28.51,0,0,1-3.53,6.44A16.71,16.71,0,0,1,284.87,80a12.51,12.51,0,0,1-6.52,1.65,9.73,9.73,0,0,1-5-1.1,7.58,7.58,0,0,1-2.78-2.79,10,10,0,0,1-1.18-3.61,16.84,16.84,0,0,1-.11-3.66,1.17,1.17,0,0,1,2.16-.57A9.37,9.37,0,0,0,274,72.24a7.87,7.87,0,0,0,4.29,1,4.51,4.51,0,0,0,3.2-1.44,14.25,14.25,0,0,0,2.69-3.91,49.6,49.6,0,0,0,2.31-5.71q1.09-3.26,2.09-6.87a14.22,14.22,0,0,1-2.95,2.31,7.66,7.66,0,0,1-3,1,9.55,9.55,0,0,1-4.11-.4,6.32,6.32,0,0,1-2.69-1.84,7.52,7.52,0,0,1-1.52-3,15.12,15.12,0,0,1-.47-3.86,29.37,29.37,0,0,1,.76-6.33,51.78,51.78,0,0,1,1.95-6.66,63,63,0,0,1,2.62-6.23,38.92,38.92,0,0,1,2.88-5l.36-.36a8.47,8.47,0,0,1,3.1,0,5,5,0,0,1,2.2,1,3.09,3.09,0,0,1,1,2.56,8.09,8.09,0,0,1-.75,2.95A31.92,31.92,0,0,1,286,35.19c-.38,1.06-.76,2.16-1.14,3.32s-.73,2.26-1,3.34-.56,2.12-.75,3.1a14,14,0,0,0-.29,2.63,3.85,3.85,0,0,0,.43,1.94,1.3,1.3,0,0,0,1.42.58,3.55,3.55,0,0,0,1.82-.83,11.38,11.38,0,0,0,1.92-2,31.62,31.62,0,0,0,1.94-2.77c.65-1,1.28-2.1,1.91-3.21.62-2.25,1.27-4.39,1.94-6.4a38.75,38.75,0,0,1,2.16-5.3,13.36,13.36,0,0,1,2.49-3.56,4,4,0,0,1,2.84-1.3,5.09,5.09,0,0,1,2.23.36,3.87,3.87,0,0,1,1.51,1.41A5.53,5.53,0,0,1,306.14,29.65Z"/><path d="M116.78,94.19a3.4,3.4,0,0,1-2.2,1.32,23.78,23.78,0,0,1-2.43.52,20,20,0,0,1-5,.16,17.75,17.75,0,0,1-2.51-.41c-.83-.19-1.59-.42-2.4-.67a18.33,18.33,0,0,1-4.83-2.27,10.9,10.9,0,0,1-2.26-2,10.07,10.07,0,0,1-.93-1.35,7.75,7.75,0,0,1-.69-1.71,7.6,7.6,0,0,1,0-3.64A9.24,9.24,0,0,1,94.84,81a10.69,10.69,0,0,1,2.22-2.38c.46-.36.84-.58,1.24-.84a10.86,10.86,0,0,1,1.23-.71,19.75,19.75,0,0,1,5.23-1.83A32.11,32.11,0,0,1,115.17,75a60.22,60.22,0,0,1,9.7,2,171.93,171.93,0,0,1,17.8,6.68c11.27,4.62,22.86,8.47,34.82,10.2a77.77,77.77,0,0,0,18.11.63c1.52-.07,3-.37,4.53-.54s3-.57,4.51-.84,3-.77,4.45-1.15c.74-.22,1.46-.48,2.19-.72s1.37-.7,2.5,0c-.31,1.25-1.14,1.32-1.84,1.7s-1.43.67-2.15,1c-1.48.57-2.94,1.18-4.44,1.7s-3,1-4.57,1.4-3.08.85-4.66,1.1A81.79,81.79,0,0,1,177,99.55a99.87,99.87,0,0,1-19-2.71,143.56,143.56,0,0,1-18.24-5.75c-5.87-2.3-11.49-4.73-17.12-6.57-1.41-.47-2.82-.87-4.24-1.25s-2.83-.72-4.24-1a28,28,0,0,0-8.19-.46,13.21,13.21,0,0,0-3.66.93,4.9,4.9,0,0,0-.84.38c-.26.14-.58.29-.74.4a4.61,4.61,0,0,0-1.06.91,2.89,2.89,0,0,0-.78,2.07,2.4,2.4,0,0,0,.12.48,5.17,5.17,0,0,0,.33.6,5.59,5.59,0,0,0,1.11,1.2,13.89,13.89,0,0,0,3.45,2c.64.29,1.36.56,2,.82s1.33.49,2,.7a29.41,29.41,0,0,0,4.26,1c.73.12,1.48.21,2.23.26A4.35,4.35,0,0,1,116.78,94.19Z"/><path class="cls-1" d="M215.37,89.23A5.49,5.49,0,0,1,217.2,86l-5.62-4c-.36-.18-.34-.41-.11-.66l1.3-1a.89.89,0,0,1,.73-.09l7.13,1.64L227,75.72l-13.45-10.3c-.34-.23-.36-.47,0-.72l2.12-1.49,18,6.2L239.39,64c1.9-1.46,3.7-2.06,5-1.64a1.39,1.39,0,0,1,1.17,1.17c.37,1.4-.43,3.2-2.18,5l-6.09,5.06,4.06,18.56L239.65,94c-.29.34-.53.3-.71-.06L230.28,79.4,223.43,85l.79,7.27a.83.83,0,0,1-.17.71l-1.12,1.18c-.28.2-.51.19-.64-.19l-3.35-6a5.54,5.54,0,0,1-3.46,1.44C215.38,89.37,215.36,89.33,215.37,89.23Z"/></g></g></svg>